<?xml version="1.0" encoding="UTF-8" standalone="no"?>
<svg
   width="61.750797"
   height="61.736351"
   viewBox="0 0 61.750797 61.736351"
   fill="none"
   version="1.1"
   id="svg2"
   sodipodi:docname="logo.svg"
   inkscape:version="1.3.1 (9b9bdc1480, 2023-11-25, custom)"
   xmlns:inkscape="http://www.inkscape.org/namespaces/inkscape"
   xmlns:sodipodi="http://sodipodi.sourceforge.net/DTD/sodipodi-0.dtd"
   xmlns="http://www.w3.org/2000/svg"
   xmlns:svg="http://www.w3.org/2000/svg">
  <defs
     id="defs2" />
  <sodipodi:namedview
     id="namedview2"
     pagecolor="#ffffff"
     bordercolor="#000000"
     borderopacity="0.25"
     inkscape:showpageshadow="2"
     inkscape:pageopacity="0.0"
     inkscape:pagecheckerboard="0"
     inkscape:deskcolor="#d1d1d1"
     showgrid="false"
     inkscape:zoom="4.331456"
     inkscape:cx="36.477341"
     inkscape:cy="27.011702"
     inkscape:window-width="1850"
     inkscape:window-height="1016"
     inkscape:window-x="0"
     inkscape:window-y="0"
     inkscape:window-maximized="1"
     inkscape:current-layer="svg2" />
  <path
     d="M 30.876569,0 C 13.852569,0 2.8905627e-5,13.85025 2.8905627e-5,30.87425 -0.00817109,36.84925 1.7284389,42.69665 4.9966789,47.69865 c 1.15638,1.7746 2.49184,3.4259 3.98539,4.9278 0.5985,0.6077 1.2314001,1.1833 1.8758001,1.7359 0.1857,0.1605 0.3737,0.3165 0.5663,0.4724 5.4981,4.4624 12.3631,6.8991 19.4442,6.9016 7.0811,0.0025 13.9478,-2.4293 19.449,-6.8879 l 0.571,-0.4815 c 0.6489,-0.5526 1.2703,-1.1282 1.8734,-1.7313 0.7462,-0.7507 1.4527,-1.5398 2.1166,-2.3642 0.6668,-0.8222 1.2913,-1.6779 1.8711,-2.5636 3.2711,-5.0044 5.0093,-10.8551 5.0013,-16.8336 C 61.750769,13.85025 47.905069,0 30.876569,0 Z m 0.9172,59.69375 h -1.8689 c -3.3559,-0.108 -6.6666,-0.8066 -9.78,-2.0637 3.1391,-1.1472 6.4399,-1.7911 9.78,-1.9079 0.6214,-0.0183 1.2475,-0.0183 1.8689,0 3.3394,0.1139 6.6393,0.7595 9.7754,1.9124 -3.1084,1.2545 -6.4136,1.9516 -9.7639,2.0592 z m 19.0923,-8.0831 c -1.2351,1.1959 -2.5742,2.2795 -4.0015,3.2378 -0.9575,0.64 -1.953,1.2213 -2.981,1.7405 -3.8356,-1.6322 -7.9393,-2.5433 -12.1052,-2.6875 v -6.65 c 0,-0.9172 0,-1.8344 0,-2.7379 -0.0151,-0.7212 0.118,-1.4379 0.3909,-2.1056 0.2729,-0.6678 0.68,-1.2725 1.1959,-1.7766 0.1261,-0.133 0.2018,-0.2293 0.3417,-0.3738 0.5732,-0.7177 1.1465,-1.0021 2.1945,-0.6879 1.9353,0.5847 3.6253,-0.2431 4.9828,-1.6602 1.5594,-1.6167 2.4422,-3.63 3.0957,-5.7328 0.2863,-0.9679 0.5228,-1.9499 0.7086,-2.942 0.1834,-0.8828 -0.3463,-1.4217 -1.2154,-1.2681 -2.6416,0.4586 -5.1617,1.2727 -7.4204,2.7655 -1.7428,1.158 -3.0361,2.6393 -3.1048,4.8476 0.0209,0.6546 0.1431,1.3021 0.3623,1.9193 0.0917,0.3096 0.0825,0.493 -0.1606,0.704 -0.243,0.2109 -0.4884,0.4976 -0.7452,0.7315 -1.5914,1.4676 -2.4949,3.2493 -2.4949,5.3154 -0.5228,-0.516 -1.0984,-1.0915 -1.7382,-1.7267 0.5692,-1.0419 0.7458,-2.2534 0.4976,-3.4144 -0.3279,-1.8024 -1.33,-3.1691 -2.7242,-4.2698 -2.4581,-1.9445 -5.3474,-2.9351 -8.3606,-3.6162 -0.4537,-0.1064 -0.9131,-0.1875 -1.3758,-0.2431 -0.8943,-0.1009 -1.3438,0.344 -1.2062,1.2245 0.3164,2.0953 0.9022,4.1408 1.7428,6.0859 0.6879,1.5777 1.5134,3.0705 2.7242,4.3064 1.6051,1.6304 3.5061,2.4903 5.8336,2.0203 0.5067,-0.141 1.0032,-0.3164 1.4859,-0.5252 0.9677,0.9631 1.9835,1.979 2.9994,2.9971 0.0745,0.0857 0.1181,0.1939 0.1238,0.3073 0,1.2749 0,3.912 0,6.5055 -4.1647,0.1448 -8.2672,1.0543 -12.1029,2.6829 -1.0284,-0.5219 -2.024,-1.1062 -2.9811,-1.7496 -1.423,-0.9559 -2.7582,-2.0364 -3.9899,-3.2287 0,-7.0902 0,-14.182 0,-21.2753 0.0106,-0.3166 0.138,-0.618 0.3577,-0.8462 6.4955,-5.7419 12.9995,-11.4746 19.5119,-17.1982 l 0.133,-0.0894 c 0.1101,0.0803 0.2293,0.1628 0.3486,0.2591 6.4053,5.6365 12.813,11.2698 19.2229,16.9001 0.155,0.1251 0.2775,0.2856 0.3573,0.468 0.0799,0.1824 0.1146,0.3813 0.1014,0.58 -0.0031,7.0703 -0.0046,14.1392 -0.0046,21.2065 z m -11.4426,-18.4456 c -0.4012,-0.4197 -3.4396,2.2311 -4.5288,3.3364 -0.2752,-1.2428 0.1055,-2.1853 0.8049,-2.9925 0.9493,-1.0938 2.1807,-1.8115 3.5061,-2.3412 1.0778,-0.4311 2.1945,-0.7636 3.4236,-1.1856 -0.1009,0.4174 -0.1559,0.7086 -0.2293,0.993 -0.5939,2.0431 -1.3346,4.0129 -2.8022,5.6272 -0.9172,1.0158 -2.144,1.4722 -3.4144,1.0388 0.1972,-0.1835 0.3692,-0.3623 0.5572,-0.5504 0.837,-0.8255 3.0728,-3.5245 2.6829,-3.9257 z m -14.1025,9.4911 c -0.6526,0.2433 -1.3607,0.2973 -2.0427,0.1557 -0.682,-0.1416 -1.3101,-0.473 -1.812,-0.956 -0.815,-0.7452 -1.5213,-1.6013 -2.0981,-2.5431 -1.1787,-1.8918 -1.8345,-3.9991 -2.2931,-6.2899 0.5893,0.1467 1.1121,0.2568 1.6235,0.399 2.4329,0.6879 4.749,1.6051 6.6293,3.3685 1.2337,1.1603 1.8826,2.55 1.4355,4.2927 -0.0309,0.064 -0.0694,0.1241 -0.1147,0.1789 -0.1559,-0.1422 -5.0104,-4.4716 -5.4185,-4.0657 -0.4082,0.4059 3.912,5.2627 4.0908,5.4599 z m 29.5374,4.178 c -0.6484,0.9744 -1.3552,1.9086 -2.1166,2.7976 0,-6.5506 0,-13.1005 0,-19.6496 0.0149,-0.335 -0.0494,-0.6689 -0.1877,-0.9744 -0.1382,-0.3056 -0.3465,-0.5743 -0.608,-0.7844 -6.7447,-5.9116 -13.4849,-11.8377 -20.2205,-17.7783 -0.7085,-0.6214 -1.0479,-0.6168 -1.7656,0.0183 -6.6959,5.8887 -13.3963,11.7743 -20.1013001,17.6569 -0.3021,0.2357 -0.5431,0.5407 -0.7027,0.889 -0.1596,0.3484 -0.2332,0.7301 -0.2145,1.1128 0.0183,6.5017 0.0229,12.9988 0.0137,19.4913 -0.75848,-0.888 -1.46516,-1.819 -2.1165,-2.7884 0,-5.9804 0,-11.9585 0,-17.9343 -0.00872,-0.1895 0.02841,-0.3782 0.10826,-0.5503 0.07984,-0.1721 0.20003,-0.3223 0.35036,-0.438 7.7766801,-6.8441 15.5509801,-13.6859 23.3230801,-20.52547 0.0573,-0.05044 0.1215,-0.09631 0.2086,-0.16281 0.1102,0.06973 0.2159,0.14632 0.3165,0.22931 7.7613,6.83187 15.5227,13.65997 23.284,20.48417 0.1384,0.1017 0.2507,0.2347 0.3276,0.3882 0.077,0.1534 0.1164,0.323 0.115,0.4947 -0.0092,6.0033 -0.0137,12.0112 -0.0137,18.0237 z m 1.1671,-20.0141 c -8.1022,-7.1132 -16.2045,-14.234 -24.3067,-21.36248 -0.688,-0.60767 -1.0663,-0.60309 -1.7703,0.01375 -8.0763,7.11313 -16.1579,14.22563 -24.2448801,21.33723 -0.24524,0.2001 -0.44003,0.455 -0.56868,0.7441 -0.12866,0.2892 -0.18757,0.6046 -0.17199,0.9207 0.00917,5.0448 0.01376,10.0835 0.01376,15.1161 -1.95091,-3.9543 -2.96171,-8.3059 -2.9535,-12.7152 0,-15.8981 12.9330901,-28.8311 28.8333901,-28.8311 15.9003,0 28.8356,12.933 28.8356,28.8311 0.0063,4.4123 -1.0076,8.7664 -2.9627,12.722 0,-5.0448 0,-10.0972 0,-15.1573 0.0176,-0.3061 -0.0369,-0.6121 -0.1592,-0.8933 -0.1223,-0.2812 -0.3089,-0.5297 -0.5448,-0.7256 z"
     fill="#1d1d1b"
     id="path1"
     style="fill:#010305;fill-opacity:1" />
</svg>
