<?xml version="1.0" encoding="UTF-8" standalone="no"?>
<svg
   width="107.02007"
   height="106.99504"
   viewBox="0 0 107.02006 106.99504"
   fill="none"
   version="1.1"
   id="svg2"
   sodipodi:docname="logo_white.svg"
   inkscape:version="1.3.1 (9b9bdc1480, 2023-11-25, custom)"
   xmlns:inkscape="http://www.inkscape.org/namespaces/inkscape"
   xmlns:sodipodi="http://sodipodi.sourceforge.net/DTD/sodipodi-0.dtd"
   xmlns="http://www.w3.org/2000/svg"
   xmlns:svg="http://www.w3.org/2000/svg">
  <defs
     id="defs2" />
  <sodipodi:namedview
     id="namedview2"
     pagecolor="#ffffff"
     bordercolor="#000000"
     borderopacity="0.25"
     inkscape:showpageshadow="2"
     inkscape:pageopacity="0.0"
     inkscape:pagecheckerboard="0"
     inkscape:deskcolor="#d1d1d1"
     showgrid="false"
     inkscape:zoom="2.165728"
     inkscape:cx="51.483843"
     inkscape:cy="59.102528"
     inkscape:window-width="1850"
     inkscape:window-height="1016"
     inkscape:window-x="0"
     inkscape:window-y="0"
     inkscape:window-maximized="1"
     inkscape:current-layer="svg2" />
  <path
     d="M 53.512066,0 C 24.007836,0 5.0096212e-5,24.003816 5.0096212e-5,53.508047 -0.01416129,63.863297 2.995551,73.997404 8.6597255,82.666352 c 2.0041175,3.075553 4.3185985,5.937415 6.9070645,8.540355 1.037258,1.053197 2.134135,2.050772 3.250942,3.008475 0.321836,0.278168 0.647658,0.548532 0.981453,0.818717 9.528736,7.733771 21.426442,11.956811 33.69867,11.961141 12.272228,0.004 24.17288,-4.21021 33.70699,-11.937397 l 0.989597,-0.834487 c 1.124607,-0.957703 2.201549,-1.955277 3.246781,-3.000509 1.293241,-1.301037 2.51767,-2.66862 3.668271,-4.097385 C 96.26512,85.700311 97.347446,84.2173 98.352296,82.682296 104.02142,74.00919 107.03389,63.869363 107.02002,53.508047 107.02002,24.003816 83.024096,0 53.512066,0 Z m 1.589596,103.45502 h -3.238984 c -5.816098,-0.18718 -11.553859,-1.39792 -16.949681,-3.576598 5.440363,-1.988205 11.160967,-3.104148 16.949681,-3.306569 1.076947,-0.03172 2.162038,-0.03172 3.238984,0 5.787502,0.197395 11.506547,1.316286 16.941709,3.314374 -5.387156,2.174163 -11.115386,3.382303 -16.921778,3.568793 z M 88.190456,89.446224 c -2.140547,2.072609 -4.461337,3.95059 -6.934985,5.611419 -1.659439,1.109179 -3.384737,2.116627 -5.16636,3.016458 C 69.441648,95.245334 62.32954,93.666318 55.109635,93.4164 V 81.891311 c 0,-1.589595 0,-3.179192 0,-4.745044 -0.02617,-1.249909 0.204504,-2.492019 0.677467,-3.649207 0.472962,-1.157362 1.178505,-2.205366 2.072609,-3.079019 0.218544,-0.230502 0.349739,-0.397399 0.5922,-0.647832 0.99341,-1.243843 1.986994,-1.736735 3.80328,-1.192196 3.354061,1.013341 6.282993,-0.421316 8.635672,-2.877287 2.70259,-2.801896 4.232567,-6.291139 5.365145,-9.935495 0.496186,-1.677463 0.906063,-3.379364 1.228073,-5.098768 0.31785,-1.529978 -0.600172,-2.463943 -2.106406,-2.19774 -4.578147,0.794798 -8.945722,2.205712 -12.860267,4.792878 -3.02044,2.006925 -5.261854,4.574161 -5.380917,8.401357 0.03623,1.134485 0.248006,2.256665 0.627901,3.326332 0.158925,0.536567 0.14298,0.854416 -0.278336,1.2201 -0.421142,0.36551 -0.846444,0.862389 -1.291503,1.26776 -2.758049,2.543492 -4.323902,5.631349 -4.323902,9.2121 -0.906063,-0.894278 -1.903633,-1.891675 -3.012468,-2.992537 0.986478,-1.805713 1.292543,-3.90536 0.862388,-5.917485 -0.568281,-3.123733 -2.305018,-5.492355 -4.7213,-7.399974 -4.260124,-3.370006 -9.267559,-5.086811 -14.489725,-6.267222 -0.786305,-0.184402 -1.58249,-0.324956 -2.384394,-0.421316 -1.549907,-0.17487 -2.328934,0.596185 -2.09046,2.122176 0.548351,3.631357 1.563599,7.176405 3.02044,10.547451 1.192197,2.734306 2.622868,5.321471 4.721301,7.463405 2.781792,2.82564 6.076409,4.31593 10.11019,3.501375 0.87816,-0.244367 1.738642,-0.548352 2.575207,-0.910222 1.677118,1.669145 3.437597,3.429797 5.19825,5.194262 0.129115,0.148527 0.204678,0.336047 0.214557,0.532581 0,2.209524 0,6.779872 0,11.274656 -7.217826,0.250957 -14.327854,1.827205 -20.975491,4.649727 -1.782316,-0.904509 -3.507787,-1.917154 -5.166533,-3.032228 -2.466196,-1.656663 -4.780226,-3.529276 -6.914881,-5.595646 0,-12.288 0,-24.578772 0,-36.872144 0.01837,-0.548698 0.239168,-1.071053 0.619929,-1.466546 11.257327,-9.951265 22.529385,-19.886586 33.816,-29.806135 l 0.230502,-0.154939 c 0.190814,0.139167 0.397399,0.282147 0.604158,0.449045 11.101001,9.768596 22.206162,19.531648 33.315136,29.2895 0.26863,0.21681 0.480934,0.494972 0.619235,0.811089 0.138475,0.316117 0.198614,0.660829 0.175736,1.005196 -0.0054,12.25351 -0.008,24.504594 -0.008,36.752905 z m -19.831127,-31.968 c -0.695319,-0.72738 -5.961158,3.866712 -7.848847,5.782302 -0.476948,-2.153892 0.182842,-3.787335 1.39497,-5.18629 1.645228,-1.895661 3.779363,-3.139504 6.076408,-4.057525 1.867931,-0.747138 3.80328,-1.323392 5.933429,-2.054759 -0.17487,0.723394 -0.27019,1.228072 -0.397399,1.720964 -1.029287,3.54089 -2.312991,6.954742 -4.856482,9.75248 -1.589597,1.760479 -3.715759,2.551464 -5.917485,1.800341 0.341767,-0.318024 0.63986,-0.627901 0.965682,-0.953897 1.450601,-1.430671 5.325458,-6.108297 4.649724,-6.803616 z m -24.44099,16.44899 c -1.131019,0.421663 -2.358225,0.515249 -3.540196,0.269843 -1.181971,-0.245406 -2.27053,-0.819754 -3.14037,-1.65684 -1.412474,-1.291503 -2.63656,-2.775207 -3.636209,-4.407437 -2.042802,-3.278671 -3.179366,-6.930825 -3.974164,-10.901002 1.021313,0.254245 1.927376,0.445059 2.813682,0.691505 4.21645,1.192198 8.230475,2.781793 11.489215,5.837935 2.13812,2.010911 3.262727,4.419396 2.487859,7.439662 -0.05355,0.110918 -0.120276,0.215078 -0.198785,0.310052 -0.27019,-0.246447 -8.683506,-7.749714 -9.390782,-7.04625 -0.707451,0.703463 6.779872,9.120766 7.08975,9.462532 z m 51.191155,7.240876 c -1.123739,1.688729 -2.348688,3.307787 -3.668271,4.84851 0,-11.35282 0,-22.704427 0,-34.054648 0.0258,-0.580587 -0.08566,-1.159268 -0.325298,-1.688729 C 90.87641,49.743589 90.515408,49.277906 90.062199,48.913782 78.372986,38.668411 66.69157,28.397909 55.018127,18.102277 53.790228,17.025331 53.202016,17.033303 51.958172,18.133993 40.353533,28.339677 28.741094,38.539988 17.120684,48.7351 c -0.523568,0.408491 -0.941244,0.937085 -1.217846,1.540723 -0.276603,0.60381 -0.404159,1.265333 -0.37175,1.92859 0.03172,11.268072 0.03969,22.528171 0.02374,33.780298 -1.314519,-1.538989 -2.539264,-3.152502 -3.668099,-4.832565 0,-10.364609 0,-20.725232 0,-31.081869 -0.01511,-0.328421 0.04924,-0.655457 0.187626,-0.953722 0.13837,-0.298266 0.346671,-0.558577 0.607207,-0.759097 13.477735,-11.861483 26.951346,-23.718982 40.421143,-35.572615 0.09931,-0.08742 0.210571,-0.166914 0.361524,-0.282166 0.190987,0.120849 0.374176,0.253587 0.548525,0.397417 13.45108,11.840288 26.902333,23.674043 40.353416,35.501038 0.239855,0.176256 0.434482,0.406758 0.56776,0.672788 0.133448,0.265858 0.201731,0.559791 0.199303,0.857364 -0.01595,10.404296 -0.02374,20.816565 -0.02374,31.236806 z m 2.0227,-34.686362 C 83.0903,34.153868 69.048234,21.812836 55.006342,9.4584938 c -1.19237,-1.0531503 -1.848,-1.0452127 -3.0681,0.023831 C 37.941236,21.810063 23.935046,34.136711 9.9195304,46.461798 c -0.4250242,0.346792 -0.7626143,0.788559 -0.985577,1.289597 -0.2229802,0.501211 -0.3250769,1.04783 -0.2980752,1.595662 0.015892,8.743124 0.023848,17.475676 0.023848,26.197656 -3.3811151,-6.853182 -5.1329288,-14.394924 -5.1187,-22.036666 0,-27.552938 22.4142888,-49.9670713 49.9710398,-49.9670713 27.556751,0 49.974874,22.4141333 49.974874,49.9670713 0.0109,7.646941 -1.74627,15.193015 -5.134644,22.04845 0,-8.743124 0,-17.499419 0,-26.269059 0.03046,-0.530501 -0.06397,-1.060828 -0.27591,-1.548175 -0.211964,-0.487346 -0.535353,-0.918021 -0.944192,-1.257535 z"
     fill="#1d1d1b"
     id="path1"
     style="fill:#ffffff;fill-opacity:1;stroke-width:1" />
</svg>
